#define 1680543559821_width 50
#define 1680543559821_height 50
static char 1680543559821_bits[] = {
  0x00, 0x00, 0x00, 0x00, 0x00, 0x00, 0x00, 0x00, 0x00, 0x60, 0x00, 0x00, 
  0x00, 0x00, 0xE0, 0x00, 0xF0, 0x01, 0x80, 0x07, 0x00, 0xF0, 0x01, 0xF8, 
  0x03, 0xC0, 0x07, 0x00, 0xF0, 0x01, 0xFC, 0x03, 0xF0, 0x07, 0x00, 0xF0, 
  0x03, 0x9E, 0x07, 0xFC, 0x07, 0x00, 0xF0, 0x07, 0x0E, 0x0F, 0x3E, 0x07, 
  0x00, 0x70, 0x0F, 0x0F, 0x9E, 0x1F, 0x0E, 0x00, 0x70, 0x9E, 0x07, 0xFC, 
  0x07, 0x0E, 0x00, 0x70, 0xFC, 0x03, 0xF8, 0x01, 0x0E, 0x00, 0x30, 0xF8, 
  0x01, 0xF0, 0x00, 0x0E, 0x00, 0x38, 0xF0, 0x00, 0xE0, 0x01, 0x0E, 0x00, 
  0x38, 0xE0, 0x01, 0xC0, 0x03, 0x0E, 0x00, 0x38, 0xC0, 0x03, 0xC0, 0x03, 
  0x0E, 0x00, 0x38, 0x80, 0x07, 0x80, 0x03, 0x0E, 0x00, 0x38, 0x00, 0x0F, 
  0x00, 0x00, 0x0C, 0x00, 0x38, 0x00, 0x1E, 0x00, 0x00, 0x1C, 0x00, 0x38, 
  0x00, 0x1E, 0x00, 0x00, 0x1C, 0x00, 0x38, 0x00, 0x1C, 0x00, 0x00, 0x1C, 
  0x00, 0x38, 0x00, 0x00, 0x00, 0x00, 0x1C, 0x00, 0x38, 0x00, 0x00, 0x00, 
  0x00, 0x1C, 0x00, 0x38, 0x00, 0x00, 0x00, 0x00, 0x1C, 0x00, 0x38, 0x00, 
  0x00, 0x00, 0x00, 0x1C, 0x00, 0x38, 0x00, 0x00, 0x00, 0x00, 0x1C, 0x00, 
  0x1C, 0x00, 0x00, 0x00, 0x00, 0x38, 0x00, 0x1C, 0x00, 0x00, 0x00, 0x00, 
  0x38, 0x00, 0x1C, 0x00, 0x00, 0x00, 0x00, 0x38, 0x00, 0x1C, 0x00, 0x00, 
  0x00, 0x00, 0x38, 0x00, 0x1C, 0x00, 0x00, 0x00, 0x00, 0x38, 0x00, 0x1C, 
  0x00, 0x00, 0x00, 0x00, 0x38, 0x00, 0x1C, 0x00, 0x00, 0x00, 0x00, 0x38, 
  0x00, 0x1C, 0x00, 0x00, 0x00, 0x00, 0x38, 0x00, 0x1C, 0x00, 0x00, 0x00, 
  0x00, 0x70, 0x00, 0x1C, 0x00, 0x00, 0x00, 0x00, 0x70, 0x00, 0x1C, 0x00, 
  0x00, 0x00, 0x00, 0x70, 0x00, 0x1C, 0x00, 0x00, 0x00, 0x00, 0x70, 0x00, 
  0x3C, 0x00, 0x00, 0x00, 0x00, 0x70, 0x00, 0x38, 0x00, 0x00, 0x00, 0x00, 
  0x70, 0x00, 0x38, 0x00, 0x00, 0x00, 0x00, 0x70, 0x00, 0x38, 0x00, 0x00, 
  0x00, 0x00, 0x70, 0x00, 0x38, 0x00, 0x00, 0x00, 0x00, 0xE0, 0x00, 0x38, 
  0x00, 0x00, 0x00, 0x00, 0xE0, 0x00, 0x38, 0x00, 0x00, 0x00, 0x00, 0xE0, 
  0x00, 0x38, 0x00, 0x00, 0x00, 0x00, 0xE0, 0x00, 0x38, 0x00, 0x00, 0x00, 
  0x00, 0xE0, 0x00, 0xFC, 0xFF, 0xFF, 0xFF, 0xFF, 0xFF, 0x00, 0xFC, 0xFF, 
  0xFF, 0xFF, 0xFF, 0xFF, 0x00, 0xFC, 0xFF, 0xFF, 0xFF, 0xFF, 0xFF, 0x00, 
  0x00, 0x00, 0x00, 0x00, 0x00, 0x00, 0x00, 0x00, 0x00, 0x00, 0x00, 0x00, 
  0x00, 0x00, };
